<svg xmlns="http://www.w3.org/2000/svg" viewBox="0 0 128 128" width="128" height="128">
  <defs>
    <linearGradient id="bx" x1="0" y1="0" x2="0" y2="1">
      <stop offset="0" stop-color="#cf9a55"/><stop offset="1" stop-color="#9c6f2c"/>
    </linearGradient>
  </defs>
  <!-- open back flaps -->
  <path d="M64 30 L106 44 L64 42 Z" fill="#8a6224"/>
  <path d="M64 30 L22 44 L64 42 Z" fill="#7a5620"/>
  <!-- box faces -->
  <path d="M22 44 L64 56 L104 44 L64 32 Z" fill="#e0b271" stroke="#5a3f1c" stroke-width="2" stroke-linejoin="round"/>
  <path d="M22 44 L64 56 L64 116 L22 100 Z" fill="url(#bx)" stroke="#5a3f1c" stroke-width="2" stroke-linejoin="round"/>
  <path d="M104 44 L64 56 L64 116 L104 100 Z" fill="#875f22" stroke="#5a3f1c" stroke-width="2" stroke-linejoin="round"/>
  <!-- recycle badge -->
  <circle cx="53" cy="84" r="16" fill="#16a34a" stroke="#0c5c2c" stroke-width="1.5"/>
  <g fill="#ffffff">
    <path d="M53 71 l5 8.6 h-10 z"/>
    <path d="M64.3 90.5 l-1.6 9.7 -8.4 -4.9 z"/>
    <path d="M41.7 90.5 l10 4.8 -8.4 4.9 z"/>
  </g>
</svg>
