<svg width="268" height="847" viewBox="0 0 268 847" fill="none" xmlns="http://www.w3.org/2000/svg">
<path d="M98.1494 -435.322L109.101 -404.1L-416.811 -124.24L-427.763 -155.462L98.1494 -435.322Z" fill="url(#paint0_linear_1744_2689)" fill-opacity="0.02"/>
<path d="M115.945 -384.587L126.897 -353.365L-399.015 -73.504L-409.967 -104.726L115.945 -384.587Z" fill="url(#paint1_linear_1744_2689)" fill-opacity="0.02"/>
<path d="M133.744 -333.851L144.696 -302.629L-381.216 -22.7681L-392.168 -53.99L133.744 -333.851Z" fill="url(#paint2_linear_1744_2689)" fill-opacity="0.02"/>
<path d="M151.541 -283.115L162.492 -251.893L-363.42 27.9674L-374.372 -3.25449L151.541 -283.115Z" fill="url(#paint3_linear_1744_2689)" fill-opacity="0.02"/>
<path d="M169.336 -232.381L180.288 -201.159L-345.624 78.7019L-356.576 47.48L169.336 -232.381Z" fill="url(#paint4_linear_1744_2689)" fill-opacity="0.02"/>
<path d="M187.134 -181.644L198.086 -150.422L-327.826 129.439L-338.778 98.2168L187.134 -181.644Z" fill="url(#paint5_linear_1744_2689)" fill-opacity="0.02"/>
<path d="M204.932 -130.908L215.884 -99.6864L-310.028 180.174L-320.98 148.952L204.932 -130.908Z" fill="url(#paint6_linear_1744_2689)" fill-opacity="0.02"/>
<path d="M222.727 -80.1735L233.679 -48.9516L-292.233 230.909L-303.185 199.687L222.727 -80.1735Z" fill="url(#paint7_linear_1744_2689)" fill-opacity="0.02"/>
<path d="M240.524 -29.4387L251.476 1.7832L-274.437 281.644L-285.388 250.422L240.524 -29.4387Z" fill="url(#paint8_linear_1744_2689)" fill-opacity="0.02"/>
<path d="M258.321 21.2975L269.273 52.5194L-256.639 332.38L-267.591 301.158L258.321 21.2975Z" fill="url(#paint9_linear_1744_2689)" fill-opacity="0.02"/>
<path d="M276.118 72.0334L287.07 103.255L-238.842 383.116L-249.794 351.894L276.118 72.0334Z" fill="url(#paint10_linear_1744_2689)" fill-opacity="0.02"/>
<path d="M293.915 122.769L304.867 153.99L-221.045 433.851L-231.997 402.629L293.915 122.769Z" fill="url(#paint11_linear_1744_2689)" fill-opacity="0.02"/>
<path d="M311.712 173.504L322.664 204.726L-203.248 484.587L-214.2 453.365L311.712 173.504Z" fill="url(#paint12_linear_1744_2689)" fill-opacity="0.02"/>
<path d="M329.507 224.239L340.459 255.461L-185.453 535.322L-196.405 504.1L329.507 224.239Z" fill="url(#paint13_linear_1744_2689)" fill-opacity="0.02"/>
<path d="M347.306 274.975L358.258 306.197L-167.654 586.058L-178.606 554.836L347.306 274.975Z" fill="url(#paint14_linear_1744_2689)" fill-opacity="0.02"/>
<path d="M365.102 325.71L376.054 356.932L-149.859 636.793L-160.81 605.571L365.102 325.71Z" fill="url(#paint15_linear_1744_2689)" fill-opacity="0.02"/>
<path d="M382.898 376.445L393.85 407.667L-132.062 687.528L-143.014 656.306L382.898 376.445Z" fill="url(#paint16_linear_1744_2689)" fill-opacity="0.02"/>
<path d="M400.696 427.182L411.648 458.404L-114.264 738.264L-125.216 707.043L400.696 427.182Z" fill="url(#paint17_linear_1744_2689)" fill-opacity="0.02"/>
<path d="M418.492 477.918L429.444 509.14L-96.4681 789L-107.42 757.778L418.492 477.918Z" fill="url(#paint18_linear_1744_2689)" fill-opacity="0.02"/>
<path d="M436.29 528.652L447.241 559.874L-78.6707 839.735L-89.6226 808.513L436.29 528.652Z" fill="url(#paint19_linear_1744_2689)" fill-opacity="0.02"/>
<path d="M454.085 579.388L465.037 610.61L-60.875 890.47L-71.8269 859.248L454.085 579.388Z" fill="url(#paint20_linear_1744_2689)" fill-opacity="0.02"/>
<path d="M471.884 630.124L482.837 661.345L-43.0757 941.206L-54.0276 909.984L471.884 630.124Z" fill="url(#paint21_linear_1744_2689)" fill-opacity="0.02"/>
<path d="M489.681 680.86L500.633 712.082L-25.2792 991.943L-36.2311 960.721L489.681 680.86Z" fill="url(#paint22_linear_1744_2689)" fill-opacity="0.02"/>
<path d="M507.478 731.596L518.43 762.817L-7.48247 1042.68L-18.4343 1011.46L507.478 731.596Z" fill="url(#paint23_linear_1744_2689)" fill-opacity="0.02"/>
<defs>
<linearGradient id="paint0_linear_1744_2689" x1="5.00243" y1="850.5" x2="289.002" y2="264.5" gradientUnits="userSpaceOnUse">
<stop stop-color="white"/>
<stop offset="1" stop-color="#999999" stop-opacity="0"/>
</linearGradient>
<linearGradient id="paint1_linear_1744_2689" x1="5.00243" y1="850.5" x2="289.002" y2="264.5" gradientUnits="userSpaceOnUse">
<stop stop-color="white"/>
<stop offset="1" stop-color="#999999" stop-opacity="0"/>
</linearGradient>
<linearGradient id="paint2_linear_1744_2689" x1="5.00243" y1="850.5" x2="289.002" y2="264.5" gradientUnits="userSpaceOnUse">
<stop stop-color="white"/>
<stop offset="1" stop-color="#999999" stop-opacity="0"/>
</linearGradient>
<linearGradient id="paint3_linear_1744_2689" x1="5.00243" y1="850.5" x2="289.002" y2="264.5" gradientUnits="userSpaceOnUse">
<stop stop-color="white"/>
<stop offset="1" stop-color="#999999" stop-opacity="0"/>
</linearGradient>
<linearGradient id="paint4_linear_1744_2689" x1="5.00243" y1="850.5" x2="289.002" y2="264.5" gradientUnits="userSpaceOnUse">
<stop stop-color="white"/>
<stop offset="1" stop-color="#999999" stop-opacity="0"/>
</linearGradient>
<linearGradient id="paint5_linear_1744_2689" x1="5.00243" y1="850.5" x2="289.002" y2="264.5" gradientUnits="userSpaceOnUse">
<stop stop-color="white"/>
<stop offset="1" stop-color="#999999" stop-opacity="0"/>
</linearGradient>
<linearGradient id="paint6_linear_1744_2689" x1="5.00243" y1="850.5" x2="289.002" y2="264.5" gradientUnits="userSpaceOnUse">
<stop stop-color="white"/>
<stop offset="1" stop-color="#999999" stop-opacity="0"/>
</linearGradient>
<linearGradient id="paint7_linear_1744_2689" x1="5.00243" y1="850.5" x2="289.002" y2="264.5" gradientUnits="userSpaceOnUse">
<stop stop-color="white"/>
<stop offset="1" stop-color="#999999" stop-opacity="0"/>
</linearGradient>
<linearGradient id="paint8_linear_1744_2689" x1="5.00243" y1="850.5" x2="289.002" y2="264.5" gradientUnits="userSpaceOnUse">
<stop stop-color="white"/>
<stop offset="1" stop-color="#999999" stop-opacity="0"/>
</linearGradient>
<linearGradient id="paint9_linear_1744_2689" x1="5.00243" y1="850.5" x2="289.002" y2="264.5" gradientUnits="userSpaceOnUse">
<stop stop-color="white"/>
<stop offset="1" stop-color="#999999" stop-opacity="0"/>
</linearGradient>
<linearGradient id="paint10_linear_1744_2689" x1="5.00243" y1="850.5" x2="289.002" y2="264.5" gradientUnits="userSpaceOnUse">
<stop stop-color="white"/>
<stop offset="1" stop-color="#999999" stop-opacity="0"/>
</linearGradient>
<linearGradient id="paint11_linear_1744_2689" x1="5.00243" y1="850.5" x2="289.002" y2="264.5" gradientUnits="userSpaceOnUse">
<stop stop-color="white"/>
<stop offset="1" stop-color="#999999" stop-opacity="0"/>
</linearGradient>
<linearGradient id="paint12_linear_1744_2689" x1="5.00243" y1="850.5" x2="289.002" y2="264.5" gradientUnits="userSpaceOnUse">
<stop stop-color="white"/>
<stop offset="1" stop-color="#999999" stop-opacity="0"/>
</linearGradient>
<linearGradient id="paint13_linear_1744_2689" x1="5.00243" y1="850.5" x2="289.002" y2="264.5" gradientUnits="userSpaceOnUse">
<stop stop-color="white"/>
<stop offset="1" stop-color="#999999" stop-opacity="0"/>
</linearGradient>
<linearGradient id="paint14_linear_1744_2689" x1="5.00243" y1="850.5" x2="289.002" y2="264.5" gradientUnits="userSpaceOnUse">
<stop stop-color="white"/>
<stop offset="1" stop-color="#999999" stop-opacity="0"/>
</linearGradient>
<linearGradient id="paint15_linear_1744_2689" x1="5.00243" y1="850.5" x2="289.002" y2="264.5" gradientUnits="userSpaceOnUse">
<stop stop-color="white"/>
<stop offset="1" stop-color="#999999" stop-opacity="0"/>
</linearGradient>
<linearGradient id="paint16_linear_1744_2689" x1="5.00243" y1="850.5" x2="289.002" y2="264.5" gradientUnits="userSpaceOnUse">
<stop stop-color="white"/>
<stop offset="1" stop-color="#999999" stop-opacity="0"/>
</linearGradient>
<linearGradient id="paint17_linear_1744_2689" x1="5.00243" y1="850.5" x2="289.002" y2="264.5" gradientUnits="userSpaceOnUse">
<stop stop-color="white"/>
<stop offset="1" stop-color="#999999" stop-opacity="0"/>
</linearGradient>
<linearGradient id="paint18_linear_1744_2689" x1="5.00243" y1="850.5" x2="289.002" y2="264.5" gradientUnits="userSpaceOnUse">
<stop stop-color="white"/>
<stop offset="1" stop-color="#999999" stop-opacity="0"/>
</linearGradient>
<linearGradient id="paint19_linear_1744_2689" x1="5.00243" y1="850.5" x2="289.002" y2="264.5" gradientUnits="userSpaceOnUse">
<stop stop-color="white"/>
<stop offset="1" stop-color="#999999" stop-opacity="0"/>
</linearGradient>
<linearGradient id="paint20_linear_1744_2689" x1="5.00243" y1="850.5" x2="289.002" y2="264.5" gradientUnits="userSpaceOnUse">
<stop stop-color="white"/>
<stop offset="1" stop-color="#999999" stop-opacity="0"/>
</linearGradient>
<linearGradient id="paint21_linear_1744_2689" x1="5.00243" y1="850.5" x2="289.002" y2="264.5" gradientUnits="userSpaceOnUse">
<stop stop-color="white"/>
<stop offset="1" stop-color="#999999" stop-opacity="0"/>
</linearGradient>
<linearGradient id="paint22_linear_1744_2689" x1="5.00243" y1="850.5" x2="289.002" y2="264.5" gradientUnits="userSpaceOnUse">
<stop stop-color="white"/>
<stop offset="1" stop-color="#999999" stop-opacity="0"/>
</linearGradient>
<linearGradient id="paint23_linear_1744_2689" x1="5.00243" y1="850.5" x2="289.002" y2="264.5" gradientUnits="userSpaceOnUse">
<stop stop-color="white"/>
<stop offset="1" stop-color="#999999" stop-opacity="0"/>
</linearGradient>
</defs>
</svg>
