<svg width="182" height="39" viewBox="0 0 182 39" fill="none" xmlns="http://www.w3.org/2000/svg">
<path d="M42.9144 -72L49.4312 -68.9198L0.516895 34.8785L-6 31.7983L42.9144 -72Z" fill="#3573FA" fill-opacity="0.06"/>
<path d="M53.5041 -66.9945L60.021 -63.9144L11.1067 39.8839L4.58979 36.8038L53.5041 -66.9945Z" fill="#3573FA" fill-opacity="0.06"/>
<path d="M64.0946 -61.9895L70.6114 -58.9093L21.6971 44.889L15.1802 41.8088L64.0946 -61.9895Z" fill="#3573FA" fill-opacity="0.06"/>
<path d="M74.6844 -56.9841L81.2012 -53.904L32.2869 49.8944L25.77 46.8142L74.6844 -56.9841Z" fill="#3573FA" fill-opacity="0.06"/>
<path d="M85.2739 -51.9788L91.7908 -48.8986L42.8764 54.8997L36.3595 51.8195L85.2739 -51.9788Z" fill="#3573FA" fill-opacity="0.06"/>
<path d="M95.8643 -46.9735L102.381 -43.8933L53.4668 59.905L46.9499 56.8248L95.8643 -46.9735Z" fill="#3573FA" fill-opacity="0.06"/>
<path d="M106.454 -41.9683L112.971 -38.8882L64.0569 64.9101L57.54 61.83L106.454 -41.9683Z" fill="#3573FA" fill-opacity="0.06"/>
<path d="M117.044 -36.9629L123.561 -33.8828L74.6464 69.9155L68.1295 66.8354L117.044 -36.9629Z" fill="#3573FA" fill-opacity="0.06"/>
<path d="M127.634 -31.9577L134.151 -28.8776L85.2362 74.9207L78.7193 71.8406L127.634 -31.9577Z" fill="#3573FA" fill-opacity="0.06"/>
<path d="M138.224 -26.9524L144.741 -23.8722L95.8263 79.9261L89.3094 76.8459L138.224 -26.9524Z" fill="#3573FA" fill-opacity="0.06"/>
<path d="M148.814 -21.9472L155.331 -18.867L106.416 84.9313L99.8995 81.8512L148.814 -21.9472Z" fill="#3573FA" fill-opacity="0.06"/>
<path d="M159.404 -16.9419L165.921 -13.8617L117.006 89.9366L110.489 86.8564L159.404 -16.9419Z" fill="#3573FA" fill-opacity="0.06"/>
<path d="M169.994 -11.9366L176.511 -8.85645L127.596 94.9419L121.079 91.8617L169.994 -11.9366Z" fill="#3573FA" fill-opacity="0.06"/>
<path d="M180.583 -6.93122L187.1 -3.85105L138.186 99.9473L131.669 96.8671L180.583 -6.93122Z" fill="#3573FA" fill-opacity="0.06"/>
<path d="M191.174 -1.9261L197.691 1.15407L148.776 104.952L142.259 101.872L191.174 -1.9261Z" fill="#3573FA" fill-opacity="0.06"/>
<path d="M201.763 3.07925L208.28 6.15942L159.366 109.958L152.849 106.878L201.763 3.07925Z" fill="#3573FA" fill-opacity="0.06"/>
<path d="M212.353 8.08445L218.87 11.1646L169.956 114.963L163.439 111.883L212.353 8.08445Z" fill="#3573FA" fill-opacity="0.06"/>
<path d="M222.943 13.0898L229.46 16.17L180.546 119.968L174.029 116.888L222.943 13.0898Z" fill="#3573FA" fill-opacity="0.06"/>
<path d="M233.533 18.0953L240.05 21.1754L191.136 124.974L184.619 121.894L233.533 18.0953Z" fill="#3573FA" fill-opacity="0.06"/>
<path d="M244.123 23.1003L250.64 26.1805L201.726 129.979L195.209 126.899L244.123 23.1003Z" fill="#3573FA" fill-opacity="0.06"/>
<path d="M254.713 28.1057L261.23 31.1859L212.315 134.984L205.798 131.904L254.713 28.1057Z" fill="#3573FA" fill-opacity="0.06"/>
<path d="M265.303 33.1108L271.82 36.1909L222.906 139.989L216.389 136.909L265.303 33.1108Z" fill="#3573FA" fill-opacity="0.06"/>
<path d="M275.893 38.1163L282.41 41.1965L233.496 144.995L226.979 141.915L275.893 38.1163Z" fill="#3573FA" fill-opacity="0.06"/>
<path d="M286.483 43.1215L293 46.2017L244.086 150L237.569 146.92L286.483 43.1215Z" fill="#3573FA" fill-opacity="0.06"/>
</svg>
